<?xml version="1.0" encoding="UTF-8"?>
<svg xmlns="http://www.w3.org/2000/svg" xmlns:xlink="http://www.w3.org/1999/xlink" width="4000px" height="3409px" viewBox="0 0 3999 3409" version="1.1">
<g id="surface1">
<path style=" stroke:none;fill-rule:nonzero;fill:rgb(15.686275%,15.686275%,15.686275%);fill-opacity:1;" d="M 2064.019531 2366.523438 L 2084.335938 2366.523438 C 2103.296875 2366.523438 2109.933594 2353.484375 2109.933594 2339.640625 C 2109.933594 2323.796875 2102.976562 2312.914062 2082.820312 2312.914062 L 2064.019531 2312.914062 Z M 2074.257812 2322.199219 L 2082.015625 2322.199219 C 2095.859375 2322.199219 2099.132812 2330.4375 2099.132812 2339.640625 C 2099.132812 2350.285156 2094.175781 2357.242188 2081.617188 2357.242188 L 2074.257812 2357.242188 Z M 2074.257812 2322.199219 "/>
<path style=" stroke:none;fill-rule:nonzero;fill:rgb(15.686275%,15.686275%,15.686275%);fill-opacity:1;" d="M 2168.507812 2366.523438 L 2178.90625 2366.523438 L 2157.148438 2312.914062 L 2150.914062 2312.914062 L 2129.074219 2366.523438 L 2139.554688 2366.523438 L 2144.675781 2353.5625 L 2163.386719 2353.5625 Z M 2154.035156 2329.878906 L 2160.109375 2345.320312 L 2147.875 2345.320312 Z M 2154.035156 2329.878906 "/>
<path style=" stroke:none;fill-rule:nonzero;fill:rgb(15.686275%,15.686275%,15.686275%);fill-opacity:1;" d="M 2097.695312 2449.222656 C 2097.695312 2432.417969 2074.976562 2432.578125 2074.976562 2424.019531 C 2074.976562 2420.417969 2078.335938 2418.5 2082.660156 2418.5 C 2086.898438 2418.5 2090.976562 2419.855469 2094.257812 2421.9375 L 2095.777344 2413.21875 C 2092.339844 2411.292969 2087.457031 2409.777344 2081.855469 2409.777344 C 2072.582031 2409.777344 2065.144531 2415.296875 2065.144531 2425.300781 C 2065.144531 2441.300781 2087.457031 2440.503906 2087.457031 2450.585938 C 2087.457031 2454.265625 2084.257812 2457.148438 2079.222656 2457.148438 C 2075.058594 2457.148438 2069.140625 2455.386719 2065.304688 2452.824219 L 2064.019531 2461.546875 C 2068.421875 2464.109375 2074.417969 2465.628906 2079.378906 2465.628906 C 2090.257812 2465.628906 2097.695312 2458.90625 2097.695312 2449.222656 Z M 2097.695312 2449.222656 "/>
<path style=" stroke:none;fill-rule:nonzero;fill:rgb(15.686275%,15.686275%,15.686275%);fill-opacity:1;" d="M 2120.839844 2410.894531 L 2120.839844 2420.257812 L 2137.636719 2420.257812 L 2137.636719 2464.507812 L 2147.953125 2464.507812 L 2147.953125 2420.257812 L 2164.75 2420.257812 L 2164.75 2410.894531 Z M 2120.839844 2410.894531 "/>
<path style=" stroke:none;fill-rule:nonzero;fill:rgb(15.686275%,15.686275%,15.686275%);fill-opacity:1;" d="M 2212.527344 2465.628906 C 2225.082031 2465.628906 2235.082031 2458.664062 2235.082031 2446.023438 L 2235.082031 2410.894531 L 2224.761719 2410.894531 L 2224.761719 2444.183594 C 2224.761719 2450.90625 2221.242188 2456.265625 2212.6875 2456.265625 C 2203.410156 2456.265625 2200.769531 2450.183594 2200.769531 2443.464844 L 2200.769531 2410.894531 L 2190.449219 2410.894531 L 2190.449219 2445.304688 C 2190.449219 2459.550781 2200.929688 2465.628906 2212.527344 2465.628906 Z M 2212.527344 2465.628906 "/>
<path style=" stroke:none;fill-rule:nonzero;fill:rgb(15.686275%,15.686275%,15.686275%);fill-opacity:1;" d="M 2263.023438 2464.507812 L 2283.339844 2464.507812 C 2302.296875 2464.507812 2308.933594 2451.464844 2308.933594 2437.621094 C 2308.933594 2421.78125 2301.976562 2410.894531 2281.820312 2410.894531 L 2263.023438 2410.894531 Z M 2273.257812 2420.175781 L 2281.019531 2420.175781 C 2294.859375 2420.175781 2298.136719 2428.417969 2298.136719 2437.621094 C 2298.136719 2448.265625 2293.175781 2455.226562 2280.621094 2455.226562 L 2273.257812 2455.226562 Z M 2273.257812 2420.175781 "/>
<path style=" stroke:none;fill-rule:nonzero;fill:rgb(15.686275%,15.686275%,15.686275%);fill-opacity:1;" d="M 2334.878906 2464.507812 L 2366.710938 2464.507812 L 2366.710938 2455.226562 L 2345.195312 2455.226562 L 2345.195312 2440.820312 L 2362.152344 2440.820312 L 2362.152344 2431.859375 L 2345.195312 2431.859375 L 2345.195312 2420.175781 L 2366.3125 2420.175781 L 2366.3125 2410.894531 L 2334.878906 2410.894531 Z M 2334.878906 2464.507812 "/>
<path style=" stroke:none;fill-rule:nonzero;fill:rgb(15.686275%,15.686275%,15.686275%);fill-opacity:1;" d="M 2393.214844 2464.507812 L 2403.371094 2464.507812 L 2403.371094 2426.496094 L 2429.363281 2464.507812 L 2436.722656 2464.507812 L 2436.722656 2410.894531 L 2426.644531 2410.894531 L 2426.644531 2443.0625 L 2404.25 2410.894531 L 2393.214844 2410.894531 Z M 2393.214844 2464.507812 "/>
<path style=" stroke:none;fill-rule:nonzero;fill:rgb(15.686275%,15.686275%,15.686275%);fill-opacity:1;" d="M 2462.824219 2410.894531 L 2462.824219 2420.257812 L 2479.621094 2420.257812 L 2479.621094 2464.507812 L 2489.941406 2464.507812 L 2489.941406 2420.257812 L 2506.738281 2420.257812 L 2506.738281 2410.894531 Z M 2462.824219 2410.894531 "/>
<path style=" stroke:none;fill-rule:nonzero;fill:rgb(15.686275%,15.686275%,15.686275%);fill-opacity:1;" d="M 2532.839844 2464.507812 L 2543.078125 2464.507812 L 2543.078125 2410.894531 L 2532.839844 2410.894531 Z M 2532.839844 2464.507812 "/>
<path style=" stroke:none;fill-rule:nonzero;fill:rgb(15.686275%,15.686275%,15.686275%);fill-opacity:1;" d="M 2642.390625 2464.507812 L 2642.390625 2443.0625 L 2647.109375 2443.0625 C 2661.347656 2443.0625 2667.507812 2435.945312 2667.507812 2425.9375 C 2667.507812 2415.21875 2660.628906 2410.894531 2650.148438 2410.894531 L 2632.074219 2410.894531 L 2632.074219 2464.507812 Z M 2642.390625 2420.175781 L 2649.191406 2420.175781 C 2653.75 2420.175781 2657.1875 2421.140625 2657.1875 2426.179688 C 2657.1875 2430.183594 2655.507812 2434.261719 2647.269531 2434.261719 L 2642.390625 2434.261719 Z M 2642.390625 2420.175781 "/>
<path style=" stroke:none;fill-rule:nonzero;fill:rgb(15.686275%,15.686275%,15.686275%);fill-opacity:1;" d="M 2693.449219 2464.507812 L 2725.28125 2464.507812 L 2725.28125 2455.226562 L 2703.765625 2455.226562 L 2703.765625 2440.820312 L 2720.722656 2440.820312 L 2720.722656 2431.859375 L 2703.765625 2431.859375 L 2703.765625 2420.175781 L 2724.882812 2420.175781 L 2724.882812 2410.894531 L 2693.449219 2410.894531 Z M 2693.449219 2464.507812 "/>
<path style=" stroke:none;fill-rule:nonzero;fill:rgb(15.686275%,15.686275%,15.686275%);fill-opacity:1;" d="M 2762.101562 2464.507812 L 2762.101562 2442.503906 L 2764.660156 2442.503906 C 2766.820312 2442.503906 2768.097656 2442.742188 2769.621094 2445.464844 L 2777.535156 2459.707031 C 2779.457031 2463.230469 2782.015625 2465.144531 2785.777344 2465.144531 C 2787.296875 2465.144531 2790.65625 2465.066406 2792.335938 2464.507812 L 2792.335938 2457.867188 L 2790.097656 2457.867188 C 2788.574219 2457.867188 2787.617188 2457.148438 2786.417969 2455.144531 L 2780.816406 2445.226562 C 2779.140625 2442.34375 2777.855469 2441.222656 2774.65625 2440.101562 C 2783.457031 2438.5 2787.054688 2432.179688 2787.054688 2426.019531 C 2787.054688 2414.253906 2779.21875 2410.894531 2769.460938 2410.894531 L 2751.785156 2410.894531 L 2751.785156 2464.507812 Z M 2762.101562 2420.175781 L 2767.859375 2420.175781 C 2773.300781 2420.175781 2776.660156 2421.058594 2776.660156 2426.417969 C 2776.660156 2430.183594 2775.21875 2433.703125 2768.5 2433.703125 L 2762.101562 2433.703125 Z M 2762.101562 2420.175781 "/>
<path style=" stroke:none;fill-rule:nonzero;fill:rgb(15.686275%,15.686275%,15.686275%);fill-opacity:1;" d="M 2097.695312 2547.207031 C 2097.695312 2530.402344 2074.976562 2530.5625 2074.976562 2522 C 2074.976562 2518.398438 2078.335938 2516.480469 2082.660156 2516.480469 C 2086.898438 2516.480469 2090.976562 2517.839844 2094.257812 2519.921875 L 2095.777344 2511.199219 C 2092.339844 2509.277344 2087.457031 2507.757812 2081.855469 2507.757812 C 2072.582031 2507.757812 2065.144531 2513.28125 2065.144531 2523.28125 C 2065.144531 2539.285156 2087.457031 2538.484375 2087.457031 2548.566406 C 2087.457031 2552.25 2084.257812 2555.125 2079.222656 2555.125 C 2075.058594 2555.125 2069.140625 2553.367188 2065.304688 2550.804688 L 2064.019531 2559.527344 C 2068.421875 2562.089844 2074.417969 2563.609375 2079.378906 2563.609375 C 2090.257812 2563.609375 2097.695312 2556.886719 2097.695312 2547.207031 Z M 2097.695312 2547.207031 "/>
<path style=" stroke:none;fill-rule:nonzero;fill:rgb(15.686275%,15.686275%,15.686275%);fill-opacity:1;" d="M 2120.839844 2508.878906 L 2120.839844 2518.238281 L 2137.636719 2518.238281 L 2137.636719 2562.488281 L 2147.953125 2562.488281 L 2147.953125 2518.238281 L 2164.75 2518.238281 L 2164.75 2508.878906 Z M 2120.839844 2508.878906 "/>
<path style=" stroke:none;fill-rule:nonzero;fill:rgb(15.686275%,15.686275%,15.686275%);fill-opacity:1;" d="M 2212.527344 2563.609375 C 2225.082031 2563.609375 2235.082031 2556.648438 2235.082031 2544.007812 L 2235.082031 2508.878906 L 2224.761719 2508.878906 L 2224.761719 2542.164062 C 2224.761719 2548.882812 2221.242188 2554.246094 2212.6875 2554.246094 C 2203.410156 2554.246094 2200.769531 2548.164062 2200.769531 2541.445312 L 2200.769531 2508.878906 L 2190.449219 2508.878906 L 2190.449219 2543.289062 C 2190.449219 2557.527344 2200.929688 2563.609375 2212.527344 2563.609375 Z M 2212.527344 2563.609375 "/>
<path style=" stroke:none;fill-rule:nonzero;fill:rgb(15.686275%,15.686275%,15.686275%);fill-opacity:1;" d="M 2263.023438 2562.488281 L 2283.339844 2562.488281 C 2302.296875 2562.488281 2308.933594 2549.449219 2308.933594 2535.605469 C 2308.933594 2519.761719 2301.976562 2508.878906 2281.820312 2508.878906 L 2263.023438 2508.878906 Z M 2273.257812 2518.160156 L 2281.019531 2518.160156 C 2294.859375 2518.160156 2298.136719 2526.402344 2298.136719 2535.605469 C 2298.136719 2546.246094 2293.175781 2553.207031 2280.621094 2553.207031 L 2273.257812 2553.207031 Z M 2273.257812 2518.160156 "/>
<path style=" stroke:none;fill-rule:nonzero;fill:rgb(15.686275%,15.686275%,15.686275%);fill-opacity:1;" d="M 2334.878906 2562.488281 L 2366.710938 2562.488281 L 2366.710938 2553.207031 L 2345.195312 2553.207031 L 2345.195312 2538.804688 L 2362.152344 2538.804688 L 2362.152344 2529.84375 L 2345.195312 2529.84375 L 2345.195312 2518.160156 L 2366.3125 2518.160156 L 2366.3125 2508.878906 L 2334.878906 2508.878906 Z M 2334.878906 2562.488281 "/>
<path style=" stroke:none;fill-rule:nonzero;fill:rgb(15.686275%,15.686275%,15.686275%);fill-opacity:1;" d="M 2393.214844 2562.488281 L 2403.371094 2562.488281 L 2403.371094 2524.480469 L 2429.363281 2562.488281 L 2436.722656 2562.488281 L 2436.722656 2508.878906 L 2426.644531 2508.878906 L 2426.644531 2541.046875 L 2404.25 2508.878906 L 2393.214844 2508.878906 Z M 2393.214844 2562.488281 "/>
<path style=" stroke:none;fill-rule:nonzero;fill:rgb(15.686275%,15.686275%,15.686275%);fill-opacity:1;" d="M 2462.824219 2508.878906 L 2462.824219 2518.238281 L 2479.621094 2518.238281 L 2479.621094 2562.488281 L 2489.941406 2562.488281 L 2489.941406 2518.238281 L 2506.738281 2518.238281 L 2506.738281 2508.878906 Z M 2462.824219 2508.878906 "/>
<path style=" stroke:none;fill-rule:nonzero;fill:rgb(15.686275%,15.686275%,15.686275%);fill-opacity:1;" d="M 2532.839844 2562.488281 L 2543.078125 2562.488281 L 2543.078125 2508.878906 L 2532.839844 2508.878906 Z M 2532.839844 2562.488281 "/>
<path style=" stroke:none;fill-rule:nonzero;fill:rgb(15.686275%,15.686275%,15.686275%);fill-opacity:1;" d="M 1132.554688 2081.898438 C 1097.367188 2074.078125 1085.285156 2067.679688 1085.285156 2054.875 C 1085.285156 2043.496094 1095.589844 2035.320312 1115.140625 2035.320312 C 1137.890625 2035.320312 1167.746094 2042.785156 1190.140625 2051.675781 L 1215.734375 2002.246094 C 1190.140625 1991.933594 1157.792969 1981.625 1116.917969 1981.625 C 1057.910156 1981.625 1021.65625 2014.335938 1021.65625 2060.207031 C 1021.65625 2112.128906 1063.246094 2125.996094 1115.496094 2138.085938 C 1149.972656 2145.90625 1160.992188 2153.019531 1160.992188 2164.753906 C 1160.992188 2178.265625 1148.910156 2185.378906 1127.582031 2185.378906 C 1098.078125 2185.378906 1072.484375 2182.175781 1040.851562 2167.246094 L 1018.101562 2214.890625 C 1057.910156 2234.808594 1081.371094 2239.074219 1125.445312 2239.074219 C 1185.160156 2239.074219 1224.617188 2209.207031 1224.617188 2159.0625 C 1224.617188 2112.128906 1188.714844 2093.992188 1132.554688 2081.898438 Z M 1132.554688 2081.898438 "/>
<path style=" stroke:none;fill-rule:nonzero;fill:rgb(15.686275%,15.686275%,15.686275%);fill-opacity:1;" d="M 1455.660156 1984.824219 L 1239.902344 1984.824219 L 1239.902344 2038.164062 L 1315.96875 2038.164062 L 1315.96875 2235.519531 L 1379.242188 2235.519531 L 1379.242188 2038.164062 L 1455.660156 2038.164062 Z M 1455.660156 1984.824219 "/>
<path style=" stroke:none;fill-rule:nonzero;fill:rgb(15.686275%,15.686275%,15.686275%);fill-opacity:1;" d="M 1713.71875 1984.824219 L 1652.222656 1984.824219 L 1652.222656 2118.167969 C 1652.222656 2164.042969 1634.09375 2181.820312 1599.261719 2181.820312 C 1564.429688 2181.820312 1546.65625 2164.042969 1546.65625 2118.167969 L 1546.65625 1984.824219 L 1485.164062 1984.824219 L 1485.164062 2134.886719 C 1485.164062 2193.203125 1524.265625 2238.71875 1599.261719 2238.71875 C 1674.261719 2238.71875 1713.71875 2192.847656 1713.71875 2134.886719 Z M 1713.71875 1984.824219 "/>
<path style=" stroke:none;fill-rule:nonzero;fill:rgb(15.686275%,15.686275%,15.686275%);fill-opacity:1;" d="M 1989.902344 2110.347656 C 1989.902344 2041.003906 1933.386719 1984.824219 1863.714844 1984.824219 L 1757.441406 1984.824219 L 1757.441406 2235.519531 L 1871.894531 2235.519531 C 1937.648438 2235.519531 1989.902344 2176.847656 1989.902344 2110.347656 Z M 1818.574219 2178.621094 L 1818.574219 2041.71875 L 1863.714844 2041.71875 C 1899.261719 2041.71875 1927.699219 2072.652344 1927.699219 2110.347656 C 1927.699219 2146.972656 1900.328125 2178.621094 1866.5625 2178.621094 Z M 1818.574219 2178.621094 "/>
<path style=" stroke:none;fill-rule:nonzero;fill:rgb(15.686275%,15.686275%,15.686275%);fill-opacity:1;" d="M 2022.25 2182.175781 L 2022.25 2235.519531 L 2241.914062 2235.519531 L 2241.914062 2182.175781 Z M 2240.140625 1984.824219 L 2024.027344 1984.824219 L 2024.027344 2038.164062 L 2240.140625 2038.164062 Z M 2218.8125 2136.308594 L 2218.8125 2084.390625 L 2045.351562 2084.390625 L 2045.351562 2136.308594 Z M 2218.8125 2136.308594 "/>
<path style=" stroke:none;fill-rule:nonzero;fill:rgb(15.686275%,15.686275%,15.686275%);fill-opacity:1;" d="M 2446.660156 1984.824219 L 2446.660156 2122.085938 L 2308.03125 1984.824219 L 2278.171875 1984.824219 L 2278.171875 2235.519531 L 2341.085938 2235.519531 L 2341.085938 2098.257812 L 2479.710938 2235.519531 L 2509.929688 2235.519531 L 2509.929688 1984.824219 Z M 2446.660156 1984.824219 "/>
<path style=" stroke:none;fill-rule:nonzero;fill:rgb(15.686275%,15.686275%,15.686275%);fill-opacity:1;" d="M 2758.742188 1984.824219 L 2542.984375 1984.824219 L 2542.984375 2038.164062 L 2619.050781 2038.164062 L 2619.050781 2235.519531 L 2682.320312 2235.519531 L 2682.320312 2038.164062 L 2758.742188 2038.164062 Z M 2758.742188 1984.824219 "/>
<path style=" stroke:none;fill-rule:nonzero;fill:rgb(15.686275%,15.686275%,15.686275%);fill-opacity:1;" d="M 2888.835938 2081.898438 C 2853.644531 2074.078125 2841.5625 2067.679688 2841.5625 2054.875 C 2841.5625 2043.496094 2851.871094 2035.320312 2871.417969 2035.320312 C 2894.167969 2035.320312 2924.023438 2042.785156 2946.417969 2051.675781 L 2972.011719 2002.246094 C 2946.417969 1991.933594 2914.074219 1981.625 2873.199219 1981.625 C 2814.191406 1981.625 2777.9375 2014.335938 2777.9375 2060.207031 C 2777.9375 2112.128906 2819.523438 2125.996094 2871.773438 2138.085938 C 2906.25 2145.90625 2917.269531 2153.019531 2917.269531 2164.753906 C 2917.269531 2178.265625 2905.1875 2185.378906 2883.859375 2185.378906 C 2854.355469 2185.378906 2828.765625 2182.175781 2797.128906 2167.246094 L 2774.382812 2214.890625 C 2814.191406 2234.808594 2837.652344 2239.074219 2881.726562 2239.074219 C 2941.441406 2239.074219 2980.898438 2209.207031 2980.898438 2159.0625 C 2980.898438 2112.128906 2944.996094 2093.992188 2888.835938 2081.898438 Z M 2888.835938 2081.898438 "/>
<path style=" stroke:none;fill-rule:nonzero;fill:rgb(0%,58.039216%,87.058824%);fill-opacity:1;" d="M 1367.683594 2311.238281 L 1367.683594 2429.652344 L 1267.800781 2429.652344 L 1267.800781 2311.238281 L 1206.664062 2311.238281 L 1206.664062 2561.933594 L 1267.800781 2561.933594 L 1267.800781 2482.992188 L 1367.683594 2482.992188 L 1367.683594 2561.933594 L 1429.175781 2561.933594 L 1429.175781 2311.238281 Z M 1367.683594 2311.238281 "/>
<path style=" stroke:none;fill-rule:nonzero;fill:rgb(0%,58.039216%,87.058824%);fill-opacity:1;" d="M 1701.453125 2311.238281 L 1639.957031 2311.238281 L 1639.957031 2444.585938 C 1639.957031 2490.460938 1621.828125 2508.238281 1586.996094 2508.238281 C 1552.164062 2508.238281 1534.390625 2490.460938 1534.390625 2444.585938 L 1534.390625 2311.238281 L 1472.894531 2311.238281 L 1472.894531 2461.296875 C 1472.894531 2519.621094 1511.996094 2565.136719 1586.996094 2565.136719 C 1661.996094 2565.136719 1701.453125 2519.261719 1701.453125 2461.296875 Z M 1701.453125 2311.238281 "/>
<path style=" stroke:none;fill-rule:nonzero;fill:rgb(0%,58.039216%,87.058824%);fill-opacity:1;" d="M 1915.433594 2366.355469 C 1915.433594 2335.0625 1891.617188 2311.238281 1861.757812 2311.238281 L 1745.171875 2311.238281 L 1745.171875 2561.933594 L 1888.773438 2561.933594 C 1938.183594 2561.933594 1964.484375 2524.238281 1964.484375 2482.636719 C 1964.484375 2442.808594 1936.046875 2409.738281 1897.304688 2404.050781 C 1908.679688 2394.804688 1915.433594 2380.9375 1915.433594 2366.355469 Z M 1806.308594 2364.578125 L 1837.945312 2364.578125 C 1852.875 2364.578125 1859.984375 2372.402344 1859.984375 2381.292969 C 1859.984375 2390.179688 1853.585938 2398.003906 1839.011719 2398.003906 L 1806.308594 2398.003906 Z M 1806.664062 2508.59375 L 1806.664062 2443.519531 L 1853.585938 2443.519531 C 1885.578125 2443.519531 1898.371094 2460.234375 1898.371094 2475.878906 C 1898.371094 2495.792969 1886.285156 2508.59375 1853.230469 2508.59375 Z M 1806.664062 2508.59375 "/>
<path style=" stroke:none;fill-rule:evenodd;fill:rgb(0%,58.039216%,87.058824%);fill-opacity:1;" d="M 2404.449219 955.695312 L 2443.195312 948.328125 C 2455.125 946.054688 2455.125 928.960938 2443.195312 926.6875 L 2017.347656 845.546875 C 2005.558594 843.304688 1993.429688 843.304688 1981.652344 845.546875 L 1555.804688 926.6875 C 1543.875 928.960938 1543.875 946.054688 1555.804688 948.328125 L 1760.652344 987.378906 L 1743.0625 1093.042969 L 1740.789062 1106.625 C 1740.59375 1107.796875 1740.5 1108.960938 1740.46875 1110.132812 L 1740.46875 1110.53125 C 1740.46875 1111.675781 1740.5625 1112.773438 1740.699219 1113.886719 C 1740.726562 1113.992188 1740.757812 1114.144531 1740.757812 1114.253906 C 1741.277344 1117.378906 1742.359375 1120.328125 1743.980469 1122.96875 C 1744.039062 1123.027344 1744.070312 1123.105469 1744.085938 1123.164062 C 1744.511719 1123.820312 1744.9375 1124.476562 1745.425781 1125.070312 C 1745.457031 1125.132812 1745.488281 1125.179688 1745.53125 1125.210938 C 1746.019531 1125.867188 1746.558594 1126.460938 1747.105469 1127.054688 C 1747.273438 1127.195312 1747.441406 1127.375 1747.625 1127.511719 C 1748.023438 1127.914062 1748.417969 1128.308594 1748.84375 1128.691406 C 1749.074219 1128.890625 1749.332031 1129.054688 1749.59375 1129.253906 C 1749.988281 1129.574219 1750.382812 1129.847656 1750.78125 1130.136719 C 1751.039062 1130.335938 1751.316406 1130.503906 1751.574219 1130.675781 C 1752.003906 1130.929688 1752.460938 1131.191406 1752.917969 1131.4375 C 1753.175781 1131.574219 1753.449219 1131.726562 1753.738281 1131.863281 C 1754.226562 1132.121094 1754.734375 1132.351562 1755.25 1132.550781 C 1755.507812 1132.65625 1755.769531 1132.777344 1756.015625 1132.871094 C 1756.699219 1133.128906 1757.386719 1133.328125 1758.085938 1133.527344 C 1758.195312 1133.558594 1758.289062 1133.617188 1758.40625 1133.632812 L 1822.09375 1149.808594 L 1864.164062 1160.488281 L 1877.894531 1164 L 1884.636719 1165.710938 L 1981.746094 1190.402344 C 1984.335938 1191.058594 1986.933594 1191.546875 1989.566406 1191.910156 C 1998.675781 1193.164062 2007.980469 1192.675781 2016.949219 1190.402344 L 2170.929688 1151.273438 L 2240.300781 1133.648438 C 2247.214844 1131.847656 2252.75 1127.175781 2255.707031 1121.179688 C 2257.9375 1116.816406 2258.789062 1111.78125 2257.9375 1106.652344 L 2251.925781 1070.621094 L 2245.882812 1034.484375 L 2238.027344 987.4375 L 2356.796875 964.792969 Z M 2377.9375 1481.445312 L 1614.609375 1481.445312 C 1614.242188 1481.445312 1613.90625 1481.496094 1613.539062 1481.507812 C 1599.625 1478.121094 1589.253906 1465.578125 1589.253906 1450.636719 L 1589.253906 1323.347656 C 1589.253906 1305.800781 1603.53125 1291.550781 1621.0625 1291.550781 L 2384.390625 1291.550781 C 2401.964844 1291.550781 2416.195312 1277.292969 2416.195312 1259.726562 C 2416.195312 1242.148438 2401.964844 1227.910156 2384.390625 1227.910156 L 1621.0625 1227.910156 C 1568.445312 1227.910156 1525.644531 1270.730469 1525.644531 1323.367188 L 1525.644531 1450.648438 C 1525.644531 1503.285156 1568.433594 1546.105469 1621.0625 1546.105469 L 2384.390625 1546.105469 C 2384.757812 1546.105469 2385.109375 1546.058594 2385.460938 1546.042969 C 2399.375 1549.429688 2409.746094 1561.972656 2409.746094 1576.914062 L 2409.746094 1704.203125 C 2409.746094 1721.734375 2395.46875 1736.003906 2377.9375 1736.003906 L 1614.609375 1736.003906 C 1597.035156 1736.003906 1582.804688 1750.253906 1582.804688 1767.824219 C 1582.804688 1785.402344 1597.035156 1799.640625 1614.609375 1799.640625 L 2377.9375 1799.640625 C 2430.554688 1799.640625 2473.355469 1756.820312 2473.355469 1704.183594 L 2473.355469 1576.898438 C 2473.355469 1524.265625 2430.566406 1481.445312 2377.9375 1481.445312 Z M 2368.054688 1340.746094 L 1636.527344 1340.746094 C 1627.738281 1340.746094 1620.617188 1347.875 1620.617188 1356.664062 C 1620.617188 1365.449219 1627.738281 1372.566406 1636.527344 1372.566406 L 2368.054688 1372.566406 Z M 1620.617188 1420.285156 C 1620.617188 1429.074219 1627.738281 1436.199219 1636.527344 1436.199219 L 2368.054688 1436.199219 L 2368.054688 1404.382812 L 1636.527344 1404.382812 C 1627.738281 1404.382812 1620.617188 1411.507812 1620.617188 1420.285156 Z M 2378.382812 1610.214844 C 2378.382812 1601.421875 2371.261719 1594.296875 2362.472656 1594.296875 L 1630.945312 1594.296875 L 1630.945312 1626.113281 L 2362.472656 1626.113281 C 2371.261719 1626.113281 2378.382812 1619.003906 2378.382812 1610.214844 Z M 1630.945312 1689.761719 L 2362.472656 1689.761719 C 2371.261719 1689.761719 2378.382812 1682.640625 2378.382812 1673.851562 C 2378.382812 1665.074219 2371.261719 1657.945312 2362.472656 1657.945312 L 1630.945312 1657.945312 Z M 1630.945312 1689.761719 "/>
</g>
</svg>
